<svg xmlns="http://www.w3.org/2000/svg" pointer-events="none" class="leaflet-zoom-animated" width="1975" height="1200" viewBox="-165 -100 1975 1200" style="transform: translate3d(-165px, -100px, 0px);"><g><path class="leaflet-interactive" stroke="#201920" stroke-opacity="1" stroke-width="2" stroke-linecap="round" stroke-linejoin="round" fill="none" d="M480 440L479 433L476 430L481 427L480 424L483 419L487 419L490 416L492 416L492 413L495 414L500 411L502 416L508 414L508 416L512 412L513 407L515 405L526 405L525 404L528 403L529 400L534 399L543 393L552 390L554 386L552 380L557 376L555 376L555 374L559 373L559 367L555 359L555 349L552 346L550 347L551 343L555 343L556 341L562 341L570 337L573 340L576 339L579 341L580 338L576 335L576 333L585 307L589 309L590 308L594 311L604 311L607 313L610 310L612 310L615 307L613 291L617 286L625 285L628 279L627 276L629 274L640 274L640 278L638 279L650 292L654 294L659 293L662 297L664 296L666 299L668 299L670 307L676 315L676 320L674 322L676 326L672 331L672 336L674 340L689 343L702 343L718 354L726 355L725 358L728 362L731 371L737 379L746 378L772 382L787 380L796 382L801 387L808 388L822 394L829 392L829 396L835 397L837 394L863 383L884 384L893 381L899 376L899 374L903 370L910 367L914 363L908 354L909 349L914 342L919 342L923 346L933 348L939 344L943 337L953 337L962 332L966 323L970 321L976 321L975 320L977 317L979 319L986 315L992 316L992 314L995 317L1003 317L1005 315L1003 308L1000 307L996 300L991 298L989 294L981 293L976 300L970 296L963 296L959 299L955 295L954 291L958 289L958 285L961 280L960 279L968 262L980 268L990 260L994 260L998 256L996 252L1000 246L1000 242L1003 239L1006 230L1014 221L1012 217L1014 213L1011 211L1006 212L1006 208L1008 208L1009 205L1015 199L1023 198L1030 195L1038 196L1042 194L1054 197L1056 200L1060 202L1063 200L1068 202L1071 205L1070 206L1072 206L1074 209L1073 211L1078 215L1077 217L1079 217L1077 219L1080 220L1080 227L1082 229L1081 230L1083 232L1083 236L1085 236L1084 239L1088 245L1089 254L1092 255L1091 262L1095 267L1105 266L1105 268L1108 270L1113 269L1114 272L1115 271L1118 274L1117 275L1122 279L1127 279L1125 283L1126 286L1128 286L1129 289L1127 293L1131 299L1148 299L1149 296L1152 295L1155 291L1158 292L1167 287L1174 288L1175 286L1177 286L1174 289L1172 289L1171 293L1174 299L1166 306L1167 309L1165 311L1165 317L1163 319L1164 322L1159 329L1159 333L1155 336L1155 340L1153 343L1141 338L1134 345L1133 344L1131 346L1134 359L1134 369L1132 375L1124 379L1126 383L1122 379L1122 377L1118 375L1116 383L1114 385L1112 383L1107 390L1097 391L1100 396L1098 400L1090 398L1089 399L1087 397L1086 398L1086 394L1082 394L1080 396L1080 400L1073 407L1065 411L1062 413L1063 414L1061 414L1055 419M536 535L533 531L532 526L536 524L538 528L542 526L542 521L540 518L541 517L536 513L535 506L539 502L536 499L532 499L530 497L528 485L521 486L511 482L511 480L506 481L507 480L504 477L505 472L503 469L495 464L492 465L492 463L489 464L487 462L492 461M856 662L854 662L854 658L852 656L856 651L850 651L848 649L845 650L841 648L838 644L835 647L833 647L831 651L827 653L825 651L823 655L820 652L818 652L818 654L816 652L812 656L807 652L803 656L799 657L797 655L796 662L798 664L798 672L795 670L792 671L792 667L790 664L785 668L781 668L779 666L780 665L777 664L777 660L769 660L768 659L771 655L770 652L772 648L767 648L765 646L765 640L763 638L765 636L756 635L754 637L750 637L752 635L750 627L753 626L752 623L757 618L757 616L760 617L760 615L763 614L762 611L764 605L763 591L762 592L760 590L760 592L758 590L757 584L755 584L755 582L753 582L752 579L749 580L747 588L744 589L738 584L730 582L725 584L724 587L712 592L708 596L708 598L704 600L693 599L688 601L688 595L687 593L682 591L683 588L680 585L677 586L677 588L673 585L665 583L659 584L658 587L654 590L654 594L652 596L650 593L650 585L644 587L643 586L643 588L631 588L626 585L622 587L621 584L619 586L620 587L618 587L615 582L609 582L608 577L606 579L603 576L601 576L597 569L593 569L594 570L591 571L587 565L582 564L579 560L577 560L574 557L574 555L573 556L567 554L564 559L565 560L563 560L561 556L550 551L547 547L540 547L539 544L536 543L536 535M869 667L863 665L862 666L858 664L858 662L856 662M872 849L871 837M884 731L890 743M895 778L895 784L892 789M912 879L919 878L924 875M955 836L963 827M989 793L994 781M995 734L995 747M1005 698L999 710M1027 665L1019 676M1034 643L1037 629" id="国界"/><path class="leaflet-interactive" stroke="#201920" stroke-opacity="1" stroke-width="2" stroke-linecap="butt" stroke-linejoin="round" stroke-dasharray="4,4" stroke-dashoffset="4" fill="none" d="M492 461L495 460L495 458L492 455L492 444L489 441L484 440L482 442L480 440" id="争议"/><path class="leaflet-interactive" stroke="gray" stroke-opacity="1" stroke-width="1" stroke-linecap="round" stroke-linejoin="round" stroke-dasharray="8,4,4,4" fill="none" d="M932 659L933 660L932 659M940 655L939 654L935 658L936 660L943 660L942 654L940 655" id="港澳"/><path class="leaflet-interactive" stroke="#4190da" stroke-opacity="1" stroke-width="1" stroke-linecap="round" stroke-linejoin="round" fill="none" d="M938 657L936 657L937 656L933 652L934 655L932 660L931 661L931 659L930 662L928 662L929 663L926 660L925 663L924 662L919 665L916 664L912 667L911 666L900 669L899 671L894 673L898 680L895 683L891 683L888 678L888 672L890 668L887 667L883 669L881 668L881 666L876 665L871 668L871 666L869 667M896 672L896 672M896 672L898 674L894 674L896 672M932 659L932 659M938 657L938 657M938 657L938 657M938 657L938 657M1004 603L1001 604L1003 604L1005 607L1001 609L1002 613L1001 616L999 616L1001 618L1003 616L1004 617L1002 619L1001 618L1001 620L1001 618L997 618L996 619L998 621L996 621L995 624L996 623L994 623L994 621L994 625L992 625L990 627L992 627L989 630L984 629L984 634L976 642L970 642L969 647L968 646L966 650L962 650L959 652L956 651L954 653L950 651L948 655L945 654L945 652L943 656L941 654L939 656L942 656L940 658L938 657M1004 603L1004 603M1026 572L1024 572L1026 574L1025 577L1023 577L1025 581L1023 583L1022 582L1019 586L1017 586L1019 588L1016 587L1013 591L1012 596L1008 598L1008 600L1006 600L1007 603L1003 605L1006 602L1004 603M1022 467L1020 469L1015 470L1016 473L1015 472L1012 477L1009 478L1008 475L1007 478L1009 478L1001 485L1001 487L998 490L999 491L996 492L996 494L998 496L999 495L1000 498L1009 503L1014 514L1016 524L1022 528L1022 530L1027 535L1027 538L1019 535L1017 537L1021 540M1021 540L1028 546L1028 550L1030 552L1027 549L1017 552L1025 560L1028 560L1030 562L1026 564L1028 566L1028 571M1022 467L1022 467M1022 467L1022 467M1032 430L1029 433L1029 435L1028 434L1026 436L1025 435L1025 437L1019 439L1018 438L1018 436L1023 435L1023 431L1025 431L1020 430L1019 427L1022 426L1024 422L1026 422L1028 418L1027 417L1029 417L1031 413L1026 408L1017 408L1017 410L1015 410L1011 418L1007 420L1006 419L1000 422L1000 424L998 424L998 429L993 434L990 433L988 437L983 432L981 434L981 438L980 437L978 441L980 445L982 444L982 447L989 449L992 448L996 453L997 452L997 454L994 455L993 457L994 460L996 460L998 463L1003 462L1003 459L1005 459L1008 456L1008 454L1014 452L1020 456L1021 455L1023 458L1029 456L1031 458L1036 459L1033 464L1035 463L1034 466L1033 465L1031 467L1027 465L1023 468L1022 467M1022 467L1022 467M1026 572L1026 572M1026 572L1026 572M1026 572L1026 572M1028 571L1026 572M1028 571L1028 571M1030 560L1030 560M1030 560L1030 560M1030 560L1030 560M1032 561L1030 560M1030 560L1028 560L1027 558L1031 558L1032 561M1032 561L1032 561M1032 557L1033 556L1032 557M1032 557L1031 556L1032 557M1032 430L1032 430M1055 419L1055 421L1052 424L1043 424L1032 430M1033 550L1033 550M1033 550L1034 551L1033 550M1035 549L1035 549M878 666L878 666M881 673L881 673M885 687L885 687M885 834L890 832L888 832L886 835L885 834M887 708L876 704L876 694L884 687L900 684L903 686L904 690L899 694L897 701L887 708M891 828L892 827L891 828M896 677L896 677M896 672L896 672M897 829L897 829M897 825L898 826L897 825M898 673L896 671L898 671L898 673M898 682L898 682M899 827L899 827M899 674L898 675L899 674M905 736L905 736M908 721L909 720L908 721M908 821L909 820L908 821M909 728L909 728M909 812L909 812M909 832L910 831L909 832M909 829L910 828L909 829M909 728L909 728M910 727L910 727M910 828L911 827L910 828M910 730L910 732L910 730M910 819L910 819M910 727L910 727M911 831L911 831M911 727L911 727M911 731L912 730L911 731M911 728L912 727L911 728M912 733L912 733M913 826L915 826L913 826M914 730L915 729L914 730M914 874L914 874M917 817L917 817M917 817L917 817M917 874L917 874M917 725L917 725M917 737L917 737M917 722L917 722M917 817L918 816L917 817M917 873L917 873M918 816L918 816M918 854L918 854M918 723L918 723M918 724L918 724M919 730L919 730M919 665L920 666L919 665M920 853L920 853M920 734L919 733L921 733L920 734M920 728L921 727L920 728M920 809L920 809M920 854L921 853L920 854M920 852L920 852M920 817L922 817L920 817M921 850L921 850M921 860L921 860M921 666L921 666M921 855L922 856L921 855M921 857L922 856L921 857M922 729L922 729M922 860L922 860M922 665L921 666L922 665M922 730L922 730M923 726L923 726M923 666L923 664L923 666M924 816L924 816M924 666L924 666M924 724L924 724M924 828L925 829L924 828M924 808L925 809L924 808M925 809L925 809M925 861L925 861M925 822L925 822M926 692L926 692M926 807L926 807M926 663L926 663M927 662L927 662M927 663L927 663M928 662L928 662M928 846L928 846M928 826L929 825L928 826M929 825L930 824L929 825M932 660L932 660M932 801L932 801M932 839L932 839M933 815L933 815M933 813L933 813M933 662L933 662M934 738L934 738M934 661L934 661M934 662L934 662M934 662L935 661L934 662M934 831L934 831M935 834L935 834M935 656L935 656M935 660L935 660M935 696L936 695L935 696M935 659L937 657L938 658L935 659M935 803L936 802L936 804L935 803M935 740L935 740M936 737L936 737M936 827L936 827M936 831L942 827L943 828L939 832L936 831M936 817L936 817M936 736L937 735L936 736M937 817L937 817M937 817L938 818L937 817M937 740L937 740M937 803L937 803M938 793L938 793M938 826L939 825L938 826M938 733L939 734L938 733M939 659L938 658L939 659M939 662L939 662M939 811L939 811M939 658L940 659L939 658M939 661L939 661M939 818L939 818M940 733L940 733M940 661L940 661M940 740L940 740M940 801L941 800L940 801M940 806L940 806M940 659L940 659M940 739L940 739M940 807L940 807M940 788L941 787L940 788M941 655L941 655M941 791L941 791M941 657L941 657M941 802L941 802M941 795L941 795M941 787L941 787M942 733L942 733M942 805L942 805M942 738L943 739L942 738M942 805L942 805M942 794L944 794L942 794M943 795L943 795M943 805L943 805M943 825L943 825M943 805L943 805M943 804L943 804M944 788L944 788M944 805L944 805M944 817L945 816L944 817M944 738L944 738M944 804L945 805L944 804M944 787L945 786L944 787M944 656L944 656M945 831L945 831M945 824L945 824M945 800L946 799L945 800M945 787L945 787M945 792L946 791L945 792M945 732L946 731L945 732M945 807L945 807M946 825L946 825M946 790L946 790M946 735L946 735M947 794L947 794M947 835L946 836L947 835M947 827L947 827M947 794L948 793L947 794M948 733L947 734L948 733M948 832L949 833L948 832M948 791L948 791M950 822L952 822L950 822M951 821L951 821M952 801L952 801M953 758L953 758M953 811L954 810L953 811M954 805L954 805M954 821L954 821M956 798L956 798M957 797L957 797M957 798L957 798M957 798L957 798M957 797L958 798L957 797M958 807L959 806L959 808L958 807M958 794L958 794M959 674L959 674M959 672L961 673L959 672M960 811L959 812L960 811M960 803L961 802L960 803M962 808L962 808M963 817L964 816L963 817M965 806L965 806M965 813L965 813M965 806L965 806M965 799L967 799L965 799M966 807L966 807M967 798L967 798M968 729L968 729M968 786L969 787L968 786M968 677L968 677M968 815L968 815M969 676L970 679L968 678L970 678L969 676M969 798L969 798M973 643L971 643L973 643M973 797L973 797M974 795L974 795M974 800L974 800M974 796L976 796L974 796M975 791L974 792L975 791M975 803L975 803M976 791L976 791M978 796L978 796M979 792L979 792M979 743L981 744L979 743M980 795L981 794L980 795M983 631L983 631M984 631L983 630L985 630L984 631M985 632L986 631L985 632M987 630L988 631L986 632L987 630M990 435L990 435M992 433L992 433M992 433L993 434L992 433M999 646L999 646M999 622L1001 622L999 622M1000 644L1000 644M1000 641L1000 641M1000 641L1000 641M1001 616L1001 616M1001 610L1001 610M1001 642L1000 643L1001 642M1001 616L1001 616M1002 616L1002 616M1002 604L1001 603L1003 603L1002 604M1002 620L1002 620M1002 620L1002 620M1003 604L1003 604M1004 617L1004 617M1005 610L1004 609L1005 610M1005 612L1005 612M1005 643L1006 642L1005 643M1005 609L1005 609M1006 605L1006 605M1007 605L1007 605M1007 604L1007 604M1007 601L1007 601M1007 482L1007 482M1009 600L1009 600M1009 657L1009 657M1009 600L1010 599L1009 600M1010 453L1010 453M1011 607L1011 607M1012 451L1013 450L1012 451M1013 662L1012 657L1008 654L1006 648L1006 640L1017 624L1023 620L1027 622L1027 630L1024 635L1021 649L1016 655L1015 663L1013 662M1013 450L1013 450M1014 451L1014 451M1014 448L1014 448M1014 414L1015 413L1014 414M1014 446L1015 445L1014 446M1016 444L1016 444M1016 445L1016 445M1017 473L1016 472L1017 473M1017 586L1017 586M1017 593L1017 593M1018 587L1017 586L1018 587M1019 586L1019 586M1021 536L1028 540L1023 540L1019 537L1020 535L1021 536M1022 526L1022 526M1022 653L1023 654L1022 653M1023 660L1024 661L1023 660M1024 662L1024 662M1024 541L1023 540L1024 541M1025 572L1025 572M1025 577L1025 577M1026 543L1023 541L1025 541L1026 543M1026 542L1029 543L1026 542M1026 559L1026 559M1026 576L1027 575L1026 576M1026 576L1026 576M1027 580L1027 580M1027 559L1026 560L1027 559M1027 543L1027 543M1027 580L1027 580M1027 619L1027 619M1027 626L1027 626M1027 558L1028 559L1027 558M1027 544L1028 545L1027 544M1028 556L1028 556M1028 571L1028 571M1029 563L1028 564L1029 563M1029 561L1029 561M1029 558L1028 557L1029 558M1029 552L1029 552M1029 561L1029 561M1029 560L1029 560M1029 560L1029 560M1030 560L1030 560M1030 557L1030 557M1030 556L1031 557L1030 556M1030 557L1030 557M1030 568L1030 568M1030 564L1029 563L1030 564M1030 564L1030 564M1031 561L1030 560L1031 561M1031 562L1032 563L1031 562M1031 562L1032 561L1031 562M1031 564L1030 563L1032 563L1031 564M1032 561L1033 562L1032 561M1032 433L1032 433M1033 560L1033 560M1033 555L1032 554L1033 555M1034 554L1034 554M1034 432L1034 432M1035 431L1036 432L1035 431M1035 551L1035 551M1036 432L1036 432M1037 558L1037 558M1037 435L1037 435M1037 551L1037 551M1038 551L1037 550L1038 551M1040 427L1039 428L1040 427M1040 429L1040 429M1041 435L1042 434L1041 435M1043 615L1046 616L1042 616L1043 615M1046 614L1046 614M1046 612L1048 612L1046 612M1046 617L1047 616L1046 617M1046 615L1046 615M1047 616L1047 616M1048 424L1048 424M1056 612L1058 612L1056 612" id="海洋"/><path class="leaflet-interactive" stroke="#747569" stroke-opacity="0.6" stroke-width="1" stroke-linecap="round" stroke-linejoin="round" fill="none" d="M661 477L648 472L636 474L634 472L632 474L622 476L619 481L614 483L610 481L603 484L600 487L591 488L586 487L584 483L581 484L578 482L577 485L575 485L573 487L574 488L571 489L563 487L553 488L554 489L550 493L551 494L549 494L549 498L547 500L540 500L539 502M752 526L749 525L748 530L747 529L745 533L741 533L741 538L738 537L737 534L735 534L734 539L734 537L732 536L730 538L728 536L727 537L725 533L726 532L723 529L722 530L724 528L720 528L716 524L713 527L704 527L698 523L690 524L681 518L677 519L668 516L667 514L665 514L665 512L660 506L663 502L661 498L662 493L659 494L658 488L662 482L657 479L661 477M691 435L677 440L671 440L665 444L668 447L669 445L670 454L672 454L678 460L679 463L672 467L672 469L676 471L677 476L675 478L665 475L661 477M798 513L796 513L795 510L792 511L791 508L788 507L787 502L788 501L795 503L797 505L800 505L801 502L803 502L803 500L800 499L800 495L805 490L804 486L805 487L806 484L810 484L808 482L810 480L811 481L811 477L813 475L810 474L810 472L807 469L809 467L806 464L808 462L801 456L801 454L798 455L795 452L793 453L790 450L788 450L786 446L782 446L778 442L780 446L779 447L764 434L762 436L759 435L756 439L745 432L743 434L744 441L740 443L740 447L737 446L735 448L729 444L727 446L723 444L716 445L714 439L709 440L707 438L708 437L701 437L700 433L691 435M737 379L732 383L734 390L731 393L727 394L724 397L722 394L718 398L716 398L707 407L707 411L697 412L695 426L691 432L691 435M827 458L825 458L820 453L816 452L818 446L817 445L822 441L823 437L826 436L824 429L817 430L812 434L806 432L802 433L799 434L801 438L798 440L793 439L791 436L792 435L789 436L787 434L787 429L783 430L781 426L774 422L771 422L780 417L781 411L778 407L768 408L768 410L766 409L764 410L764 412L763 409L761 409L762 411L759 412L759 407L751 399L753 396L746 378M768 570L766 564L766 550L762 544L762 542L765 542L761 538L760 533L757 529L752 526M798 513L796 519L793 516L790 517L792 523L790 525L785 526L782 523L780 525L776 519L775 524L766 519L759 505L755 505L754 503L751 504L752 505L748 509L748 512L752 514L749 518L750 519L748 523L752 526M757 584L758 581L760 585L763 582L762 573L764 573L765 576L767 572L766 571L768 570M838 590L837 585L830 588L827 585L829 583L826 581L827 578L822 577L822 581L817 584L817 589L813 594L811 593L810 598L813 605L809 609L807 607L802 611L797 608L796 609L797 608L794 605L795 602L793 602L794 601L789 595L787 589L785 587L782 588L782 590L780 588L778 584L780 582L775 577L775 575L773 575L771 583L768 580L768 570M840 521L838 525L832 525L830 523L829 524L826 521L828 520L828 516L825 513L825 511L817 509L816 510L810 502L807 505L805 505L805 507L802 506L806 513L803 514L802 517L799 518L798 517L800 514L798 513M865 452L862 451L861 448L852 446L857 436L855 430L853 430L850 431L845 438L845 446L843 448L843 453L827 458M827 458L831 458L830 461L837 464L837 470L840 474L838 478L839 480L850 489L852 487L851 482L854 483L857 478L856 475L851 474L852 473L850 470L852 470L854 462L860 463M838 590L837 594L836 593L834 595L830 595L828 593L824 595L824 593L819 597L819 599L821 599L820 603L822 605L828 603L831 606L829 608L830 609L828 611L829 612L827 616L829 618L830 617L829 618L833 622L832 621L830 623L831 624L829 627M829 627L831 633L831 631L835 631L838 636L847 635L848 642L843 643L841 647M886 611L884 615L879 615L881 615L880 618L878 616L876 620L873 617L870 620L870 622L867 623L863 621L860 617L858 617L858 621L849 624L846 629L837 624L832 629L829 627M850 579L846 576L842 580L842 582L850 586L849 589L838 590M860 463L861 466L866 467L870 471L871 470L876 473L876 487L874 489L867 488L865 490L867 492L865 494L853 491L853 495L850 498L854 502L852 502L853 504L851 506L853 511L851 513L851 511L847 511L843 515L846 518L845 521L840 521M875 531L867 531L862 526L860 528L858 526L859 525L855 523L851 525L844 522L842 524L840 521M883 580L881 584L878 583L878 581L875 580L875 577L873 577L872 572L868 573L863 570L862 575L860 576L860 574L858 574L854 580L851 575L852 578L850 579M850 579L848 574L843 573L843 569L839 569L840 568L838 566L843 561L843 559L841 558L844 555L846 555L848 557L853 556L855 560L858 559L863 552L862 550L866 548L867 549L869 547L869 543L871 542L871 540L875 538L875 536L872 535L872 533L874 533L873 531L875 531M860 463L862 454L865 452M904 430L905 427L903 427L899 431L895 429L893 429L894 430L892 432L890 431L891 434L889 434L888 437L881 443L881 450L880 451L878 449L878 455L870 455L867 452L865 452M875 531L883 537L887 537M887 537L889 537L888 538L893 541L893 549L890 548L885 553L882 553L882 551L880 551L878 553L877 552L873 554L875 556L875 562L873 562L875 564L875 562L877 562L880 568L879 569L880 568L883 571M883 571L883 580M936 572L933 571L934 566L932 563L927 567L925 567L925 563L923 563L923 565L922 564L918 566L914 562L907 561L902 558L897 559L899 563L898 564L890 563L886 565L883 571M886 611L886 609L883 608L885 604L884 603L886 601L885 600L887 599L885 597L881 597L879 599L878 598L886 591L884 589L885 582L883 582L883 580M915 627L911 627L909 629L907 622L903 625L902 624L909 613L905 612L906 609L904 607L898 607L898 609L895 612L892 611L892 609L889 612L890 613L886 611M903 516L900 519L898 517L895 518L887 516L885 518L889 519L889 521L891 521L894 524L892 526L887 525L887 537M889 668L888 668M889 668L891 663L896 662L895 659L900 658L900 654L907 651L907 643L913 637L915 633L913 629L915 627M890 684L892 684M893 684L896 683M896 498L894 497L894 493L899 484L897 480L896 465L901 456L897 450L897 447L902 442L903 435L906 431L904 430M896 498L896 502L899 505L898 508L901 509L903 516M896 498L909 495L913 491L915 491L915 489L922 490L930 486L933 483L932 482L934 478L934 473M897 683L898 682M953 541L952 542L951 539L947 541L943 539L943 536L940 537L939 535L937 537L937 535L934 534L934 528L930 530L928 528L917 529L914 526L913 527L909 525L903 516M903 517L903 517M939 410L938 413L933 414L931 416L929 416L929 414L926 415L924 418L920 416L915 421L912 427L909 426L904 430M915 627L916 622L922 622L922 624L925 625L926 621L924 621L927 618L931 620L936 619M954 476L950 476L948 478L946 476L934 473M934 473L931 469L935 465L934 462L939 455L934 447L932 447L932 443L935 439L934 436L937 433L939 435L944 427L941 423L939 423L940 422L936 420L943 416L940 414L939 410M961 562L959 564L954 562L952 565L951 564L948 567L947 566L947 568L941 568L936 572M936 619L937 612L938 610L940 610L937 609L938 604L935 603L936 594L933 595L932 592L935 586L937 586L937 584L940 581L938 579L939 576L936 572M936 619L937 618L937 621L943 619L945 621L945 623L941 625L942 626L940 628L942 630L951 627L958 630L957 626L959 625M997 401L987 401L984 395L984 393L986 393L986 389L985 390L982 387L983 384L980 381L976 381L976 383L972 383L970 385L969 391L966 392L964 390L960 394L959 391L955 393L952 396L953 397L947 397L947 389L943 388L943 390L939 394L940 397L936 399L937 402L935 404L939 410M962 498L962 500L965 503L966 502L967 507L962 510L960 506L957 505L955 507L956 512L952 514L952 518L947 519L952 526L956 528L958 526L959 527L959 535L957 537L956 536L953 539L953 541M961 562L961 558L957 551L960 547L953 541M981 446L980 449L978 449L976 452L968 453L965 457L964 456L962 458L963 459L961 459L958 462L959 463L952 470L954 476M962 498L954 498L954 496L952 494L951 495L950 492L946 492L948 488L950 486L951 487L953 483L956 482L961 477L953 481L952 479L954 476M959 625L958 622L960 620L960 616L962 614L961 613L963 613L965 611L964 608L966 606L967 607L966 600L973 596L973 592L971 592L971 590L972 591L977 586L980 589L980 587L986 585L987 582M973 642L970 635L970 631L968 629L969 628L966 629L964 627L965 626L962 627L963 626L959 625M985 568L983 566L979 566L974 561L972 563L973 564L969 566L967 564L970 561L968 559L963 563L961 562M964 497L962 498M997 492L993 492L992 495L990 497L989 496L986 501L984 501L984 497L980 497L980 499L977 500L975 498L973 500L970 493L965 494L964 497M1001 545L997 543L992 544L991 543L993 540L989 536L988 537L987 534L987 532L990 531L991 528L989 526L990 525L995 527L996 522L993 520L991 524L987 524L985 522L985 518L982 517L985 510L979 510L979 506L973 505L969 500L967 500L964 497M976 417L974 415L976 411L971 410L968 407L968 405L964 407L965 409L957 413L959 418L953 421L955 423L954 426L958 428L963 427L963 429L965 429L964 428L966 426L969 426M978 441L975 442L968 439L968 435L970 435L969 426M970 425L969 426M970 425L973 426L974 419M974 419L968 421L971 424L970 425M973 642L974 643M976 417L974 419M975 644L976 645M976 417L980 419L980 421L978 421L977 424L979 428L982 427L981 430L983 432M985 568L993 561L993 555L999 555L997 553L1001 549L1001 545M985 568L983 572L987 576L987 582M1011 597L1007 593L1003 595L1000 590L997 593L993 593L993 589L991 587L992 584L990 582L987 582M997 401L999 398L997 396L997 386L1000 385L1004 387L1005 393L1007 395L1007 393L1013 387L1017 387L1021 383L1024 384L1029 379L1032 380L1033 377L1035 379L1042 378L1041 377L1043 375L1047 374L1047 369M1004 421L1002 419L1001 414L996 412L996 410L995 411L992 408L997 401M1016 546L1013 547L1013 549L1011 550L1009 548L1010 547L1007 548L1003 544L1001 545M1013 598L1014 599M1015 444L1018 444M1028 538L1022 537L1020 535L1018 537L1021 539L1018 542L1019 543L1015 545L1016 546M1020 551L1016 546M1021 551L1023 551M1044 311L1043 314L1042 313L1041 315L1039 315L1037 311L1038 310L1035 309L1033 305L1053 285L1055 287L1054 288L1056 292L1057 291L1057 283L1060 274L1065 273L1065 257L1067 257L1066 256L1068 252L1072 249L1071 246L1074 243L1074 241L1068 232L1063 229L1063 231L1059 235L1056 234L1056 236L1050 236L1048 234L1043 237L1040 235L1039 236L1035 222L1037 218L1035 218L1030 213L1027 218L1019 211L1024 207L1026 203L1022 198M1023 551L1024 551M1026 550L1027 550M1028 549L1030 549M1032 548L1034 548M1036 548L1037 547M1134 367L1129 368L1126 365L1124 365L1123 360L1119 362L1118 359L1112 363L1111 362L1110 365L1106 367L1102 357L1102 353L1100 351L1099 354L1097 354L1098 356L1094 358L1090 352L1091 351L1089 349L1085 349L1086 344L1084 341L1080 339L1074 341L1070 338L1069 335L1067 337L1063 337L1063 335L1057 337L1051 331L1052 330L1050 328L1050 322L1044 324L1041 323M1041 323L1039 318L1047 315L1047 313L1046 312L1046 314L1044 311M1041 323L1040 326L1037 326L1037 332L1035 332L1032 328L1031 331L1027 327L1025 327L1026 328L1024 331L1028 333L1031 340L1029 342L1029 350L1032 356L1034 356L1040 351L1043 355L1043 359L1046 365L1043 366L1043 368L1047 369M1044 311L1044 311M1044 311L1044 311M1044 311L1044 311M1047 369L1048 368L1051 371L1052 370L1056 377L1060 373L1061 374L1060 375L1065 385L1064 386L1068 388L1066 390L1066 396L1068 396L1068 400L1071 403L1069 407L1070 408M845 487L846 486L845 487M886 602L886 602M925 563L925 563" id="省界"/><path class="leaflet-interactive" stroke="#3388ff" stroke-opacity="0" stroke-width="3" stroke-linecap="round" stroke-linejoin="round" fill="#eee" fill-opacity="0.5" fill-rule="evenodd" d="M975 412L977 411L970 410L968 405L965 406L965 408L957 413L959 416L953 421L955 423L954 426L958 428L963 427L964 429L967 426L968 427L971 424L968 421L973 420L976 417L974 415L975 412z" id="北京市"/>
<path name="天津市" class="leaflet-interactive" stroke="#3388ff" stroke-opacity="0" stroke-width="3" stroke-linecap="round" stroke-linejoin="round" fill="#eee" fill-opacity="0.5" fill-rule="evenodd" d="M980 430L982 428L979 428L977 424L977 422L980 421L980 419L977 417L973 420L973 426L969 426L970 435L968 435L968 439L975 442L978 441L980 439L979 438L981 438L981 434L983 432L981 430L977 430L979 429zM980 430L981 429L980 430z" id="天津市"/>
<path name="河北省" class="leaflet-interactive" stroke="#3388ff" stroke-opacity="0" stroke-width="3" stroke-linecap="round" stroke-linejoin="round" fill="#eee" fill-opacity="0.5" fill-rule="evenodd" d="M977 411L974 412L974 416L980 420L977 421L979 426L978 427L982 427L981 430L988 437L990 433L993 434L998 429L997 428L999 423L1004 420L1001 417L1000 413L997 413L996 410L995 411L992 408L997 401L987 401L984 395L985 393L986 394L986 390L984 390L983 385L979 381L971 383L969 391L966 392L964 390L960 394L958 391L952 396L953 397L947 397L947 389L943 388L943 390L939 394L940 397L936 398L936 404L940 414L943 415L937 420L938 422L942 423L943 429L939 435L936 434L935 440L932 442L932 446L936 449L939 455L934 462L935 466L931 468L932 472L938 475L942 475L944 477L947 476L947 478L950 475L952 477L954 476L952 471L958 465L957 464L960 459L962 459L963 456L965 458L969 452L976 452L980 448L982 445L980 445L977 441L975 442L968 439L968 435L970 435L969 426L967 426L964 429L962 427L957 428L955 426L954 427L955 423L953 421L959 417L957 412L965 409L965 406L968 405L968 407L971 410L977 411zM974 419L968 421L971 424L971 426L973 426L973 420zM980 430L977 430L980 430zM992 433L992 434z" id="河北省"/>
<path name="山西省" class="leaflet-interactive" stroke="#3388ff" stroke-opacity="0" stroke-width="3" stroke-linecap="round" stroke-linejoin="round" fill="#eee" fill-opacity="0.5" fill-rule="evenodd" d="M896 498L909 495L912 492L915 492L916 489L923 490L933 483L932 482L934 478L934 472L932 472L931 469L934 466L934 463L939 455L935 448L932 447L932 443L935 439L934 436L938 433L938 435L940 434L944 427L936 420L943 416L940 414L938 410L936 414L935 413L931 416L927 415L924 418L920 416L918 417L912 427L909 426L904 430L905 433L902 442L897 447L901 455L899 461L896 464L898 485L894 494L895 498z" id="山西省"/>
<path name="内蒙古自治区" class="leaflet-interactive" stroke="#3388ff" stroke-opacity="0" stroke-width="3" stroke-linecap="round" stroke-linejoin="round" fill="#eee" fill-opacity="0.5" fill-rule="evenodd" d="M746 378L753 396L751 398L758 407L759 412L762 411L763 409L764 412L764 410L766 409L768 411L768 409L778 407L781 411L780 417L772 422L781 425L783 430L786 429L788 434L787 435L792 435L791 436L794 439L798 440L801 437L799 434L805 432L811 434L817 430L824 429L826 436L822 441L817 444L818 448L816 449L817 452L824 458L842 454L844 452L843 448L845 446L844 443L847 434L853 430L855 430L857 435L852 445L853 447L860 448L863 451L869 453L869 455L878 455L878 449L880 451L881 450L879 447L891 433L890 432L894 431L894 429L896 431L900 431L903 427L905 427L904 430L907 429L908 426L912 427L914 425L916 419L919 416L924 418L926 415L930 416L938 412L938 408L935 404L937 402L936 399L940 398L939 394L943 390L943 388L946 389L948 392L947 397L953 397L952 396L958 391L961 394L964 390L966 392L969 391L970 385L972 383L980 381L983 384L982 387L984 388L984 390L986 390L986 394L984 394L986 399L991 401L997 401L999 399L997 396L997 388L999 385L1001 387L1004 387L1003 388L1006 395L1015 386L1018 387L1021 383L1024 384L1029 379L1032 380L1032 378L1036 378L1038 380L1042 377L1042 375L1047 374L1047 369L1043 367L1045 367L1045 363L1041 351L1036 355L1031 355L1031 351L1029 349L1029 341L1031 339L1028 333L1024 331L1026 329L1025 327L1027 327L1030 330L1033 329L1036 332L1038 329L1037 326L1041 325L1039 318L1047 315L1045 311L1043 311L1043 314L1042 313L1041 315L1039 315L1037 311L1038 310L1033 306L1034 302L1042 297L1054 285L1056 292L1057 291L1057 285L1060 274L1065 273L1064 260L1066 258L1065 257L1067 257L1066 256L1068 252L1072 249L1071 246L1074 243L1074 239L1072 239L1068 232L1063 229L1063 231L1059 235L1057 234L1055 236L1050 236L1048 234L1043 237L1040 235L1038 233L1035 222L1037 218L1030 214L1026 218L1019 211L1024 207L1026 203L1025 201L1022 198L1016 199L1006 209L1007 212L1011 211L1013 213L1012 216L1014 218L1014 223L1006 230L1004 234L1005 235L1000 242L1000 246L996 252L998 256L994 260L990 260L980 268L968 262L960 279L961 280L958 284L958 289L954 291L955 295L959 299L963 296L969 296L976 300L981 293L988 294L1003 308L1005 314L1002 317L996 317L993 314L990 316L987 315L980 319L977 317L975 321L966 322L963 330L956 336L944 337L941 342L933 348L924 346L919 342L914 342L908 352L909 357L913 360L914 364L903 370L896 379L883 384L863 383L843 391L837 394L835 397L829 396L829 392L822 394L809 388L802 387L796 382L788 380L772 382L753 380L747 378z" id="内蒙古自治区"/>
<path name="辽宁省" class="leaflet-interactive" stroke="#3388ff" stroke-opacity="0" stroke-width="3" stroke-linecap="round" stroke-linejoin="round" fill="#eee" fill-opacity="0.5" fill-rule="evenodd" d="M1046 424L1053 424L1053 422L1061 413L1062 414L1070 408L1069 407L1071 402L1066 395L1066 391L1068 388L1064 386L1065 385L1063 383L1061 373L1058 375L1058 377L1056 377L1055 373L1051 371L1049 367L1047 369L1046 375L1042 375L1040 379L1033 378L1033 380L1027 380L1025 384L1022 383L1017 387L1016 386L1012 388L1007 393L1007 395L1004 391L1004 387L1000 385L997 387L997 396L999 397L999 399L997 400L993 408L995 411L996 410L997 413L1000 412L1001 416L1005 421L1011 417L1015 410L1017 410L1016 409L1019 408L1026 407L1028 411L1030 411L1031 413L1029 415L1030 416L1027 417L1027 420L1019 428L1022 431L1025 430L1023 432L1024 433L1018 437L1018 439L1023 438L1024 435L1027 436L1026 435L1028 435L1030 433L1029 432L1033 429L1045 424zM1035 431L1035 431zM1032 433L1033 432L1032 433zM1036 432L1036 432zM1036 435L1037 435zM1040 427L1040 428zM1034 432L1034 432zM1014 414L1015 413L1014 414zM1040 429L1040 429zM1041 435L1042 434L1041 435zM1048 424L1048 424z" id="辽宁省"/>
<path name="吉林省" class="leaflet-interactive" stroke="#3388ff" stroke-opacity="0" stroke-width="3" stroke-linecap="round" stroke-linejoin="round" fill="#eee" fill-opacity="0.5" fill-rule="evenodd" d="M1115 384L1117 381L1117 377L1119 375L1121 375L1120 376L1122 380L1124 382L1125 381L1126 384L1126 380L1124 380L1125 378L1132 376L1134 368L1129 368L1126 365L1124 365L1123 360L1119 362L1118 359L1112 363L1111 362L1110 365L1106 367L1105 362L1101 356L1101 352L1099 352L1097 355L1098 356L1094 358L1090 352L1091 351L1089 349L1085 349L1085 341L1080 339L1077 341L1072 340L1069 335L1067 337L1063 337L1063 335L1057 337L1051 331L1052 330L1050 328L1050 322L1042 323L1037 326L1037 332L1035 332L1033 329L1030 330L1027 327L1025 327L1026 328L1024 331L1028 333L1031 340L1029 342L1029 350L1031 351L1031 355L1034 356L1041 351L1046 365L1043 366L1044 368L1047 369L1049 367L1049 369L1056 374L1055 377L1058 377L1058 375L1060 373L1061 374L1060 375L1062 381L1066 387L1065 388L1067 388L1066 395L1071 402L1069 407L1070 408L1072 408L1078 402L1080 397L1084 393L1087 397L1086 398L1087 397L1089 399L1090 398L1097 400L1100 398L1097 391L1107 390L1112 384L1114 384z" id="吉林省"/>
<path name="黑龙江省" class="leaflet-interactive" stroke="#3388ff" stroke-opacity="0" stroke-width="3" stroke-linecap="round" stroke-linejoin="round" fill="#eee" fill-opacity="0.5" fill-rule="evenodd" d="M1046 324L1049 322L1051 324L1051 330L1057 337L1061 335L1063 335L1063 337L1067 337L1069 335L1072 340L1077 341L1080 339L1085 341L1085 349L1091 350L1090 351L1094 358L1096 358L1101 351L1101 356L1105 361L1106 367L1108 367L1111 362L1112 363L1118 359L1119 362L1123 359L1123 363L1126 366L1129 368L1134 368L1134 359L1132 348L1130 346L1132 344L1136 344L1138 340L1140 340L1140 338L1154 343L1155 336L1159 332L1162 326L1161 325L1164 322L1163 319L1165 316L1167 308L1166 307L1173 299L1171 294L1172 289L1177 287L1167 287L1159 292L1155 292L1151 295L1150 294L1148 299L1130 299L1127 293L1128 285L1126 286L1125 283L1127 279L1122 279L1116 273L1116 271L1114 271L1114 269L1109 270L1103 266L1095 267L1091 262L1092 255L1089 253L1088 245L1084 240L1085 236L1083 236L1084 235L1079 224L1079 218L1077 217L1078 216L1075 212L1073 212L1075 209L1073 209L1071 206L1070 207L1071 205L1068 202L1064 200L1061 202L1056 200L1054 197L1052 198L1046 194L1037 196L1030 195L1023 198L1026 203L1019 212L1026 218L1030 214L1037 218L1035 222L1038 234L1043 237L1048 234L1050 236L1056 236L1056 234L1058 235L1062 233L1061 232L1063 232L1064 229L1069 233L1072 239L1074 239L1074 243L1071 246L1072 249L1065 258L1065 273L1060 274L1057 284L1057 292L1054 288L1055 287L1052 286L1041 298L1035 301L1033 305L1037 310L1038 309L1037 311L1039 315L1041 315L1044 312L1043 311L1045 311L1046 314L1046 312L1047 313L1046 316L1040 318L1041 322L1046 324z" id="黑龙江省"/>
<path name="上海市"  class="leaflet-interactive" stroke="#3388ff" stroke-opacity="0" stroke-width="3" stroke-linecap="round" stroke-linejoin="round" fill="#eee" fill-opacity="0.5" fill-rule="evenodd" d="M1016 546L1017 549L1021 551L1027 549L1028 547L1021 540L1018 541L1018 545L1015 545zM1028 538L1022 537L1020 535L1018 537L1026 541L1028 540zM1026 542L1023 541L1026 543zM1026 542L1029 543L1026 542zM1024 541L1023 540zM1027 544L1028 544zM1027 544L1027 544z" id="上海市"/>
<path name="江苏省" class="leaflet-interactive" stroke="#3388ff" stroke-opacity="0" stroke-width="3" stroke-linecap="round" stroke-linejoin="round" fill="#eee" fill-opacity="0.5" fill-rule="evenodd" d="M975 498L973 500L970 493L964 494L964 496L969 501L971 501L971 504L976 506L977 505L980 508L980 510L984 510L982 516L983 518L985 517L985 521L988 524L991 524L993 520L997 525L995 527L993 525L989 525L991 529L987 532L987 534L993 539L991 542L992 544L1004 544L1007 548L1010 547L1009 548L1011 550L1016 546L1015 545L1017 545L1017 543L1021 539L1018 537L1020 535L1022 537L1028 538L1027 535L1022 531L1022 528L1016 524L1016 520L1009 502L999 497L1000 496L996 494L996 491L993 492L992 495L990 497L989 496L986 501L983 498L984 497L980 497L980 499L977 500L975 498z" id="江苏省"/>
<path name="浙江" class="leaflet-interactive" stroke="#3388ff" stroke-opacity="0" stroke-width="3" stroke-linecap="round" stroke-linejoin="round" fill="#eee" fill-opacity="0.5" fill-rule="evenodd" d="M988 582L992 584L991 587L993 589L993 593L997 593L1001 590L1003 595L1007 593L1011 597L1013 594L1013 590L1019 587L1017 587L1017 585L1018 584L1018 586L1023 582L1024 583L1023 578L1026 575L1024 572L1028 572L1027 564L1030 561L1024 559L1021 555L1019 555L1017 552L1020 551L1016 546L1013 547L1013 549L1011 550L1009 548L1010 547L1007 548L1004 544L1002 544L1000 548L1001 549L997 553L999 555L993 555L993 561L983 570L988 582zM1030 560L1032 560L1028 557L1027 558L1029 560zM1031 557L1030 558zM1031 564L1031 564zM1033 550L1034 551L1033 550zM1030 556L1031 557L1030 555zM1032 557L1032 556zM1028 571L1029 570zM1032 561L1033 562L1032 561zM1033 555L1032 554zM1026 576L1027 575zM1031 562L1032 562zM1026 572L1026 572zM1019 591L1019 591zM1027 550L1029 552L1028 549zM1027 580L1027 579zM1030 564L1029 563L1030 564zM1033 561L1033 561zM1035 551L1034 551zM1027 580L1027 580zM1029 558L1028 558zM1033 560L1032 560zM1026 560L1027 559L1026 560zM1017 593L1017 593zM1028 571L1028 570zM1029 563L1028 564zM1027 558L1028 559zM1028 556L1027 556zM1030 560L1030 560zM1031 564L1031 563zM1018 589L1018 589zM1037 558L1037 558zM1031 556L1032 556zM1031 562L1032 561zM1037 551L1037 550zM1018 587L1017 587zM1019 586L1019 586zM1033 560L1033 560zM1038 551L1037 550zM1030 560L1031 560zM1028 560L1029 560zM1017 586L1018 586zM1033 561L1033 561zM1030 560L1030 560z" id="浙江省"/>
<path name="安徽" class="leaflet-interactive" stroke="#3388ff" stroke-opacity="0" stroke-width="3" stroke-linecap="round" stroke-linejoin="round" fill="#eee" fill-opacity="0.5" fill-rule="evenodd" d="M967 506L967 508L966 507L963 510L961 510L960 507L956 505L956 512L952 514L952 518L947 519L952 526L955 528L958 526L959 528L959 535L956 536L953 539L953 541L955 544L961 547L957 550L963 563L966 559L968 559L970 561L967 564L969 566L974 561L979 566L983 565L984 568L991 563L993 560L993 556L998 555L997 552L1001 548L1001 546L998 543L992 543L992 538L990 538L991 537L989 537L987 534L987 532L990 531L990 525L993 525L994 527L996 527L997 525L994 520L992 520L991 523L987 524L985 522L985 518L982 517L984 509L979 510L980 508L977 505L973 505L969 500L967 500L964 497L962 501L964 503L966 502L967 506zM992 540L993 540zM968 564L968 564zM954 527L954 527z" id="安徽省"/>
<path name="福建省" class="leaflet-interactive" stroke="#3388ff" stroke-opacity="0" stroke-width="3" stroke-linecap="round" stroke-linejoin="round" fill="#eee" fill-opacity="0.5" fill-rule="evenodd" d="M994 624L993 621L995 621L995 623L995 621L998 622L998 620L996 619L997 618L1001 618L1001 620L1004 617L1003 616L1001 618L999 616L1002 611L1001 610L1004 607L1003 604L1001 604L1002 602L1003 603L1006 601L1005 604L1003 605L1007 602L1006 601L1010 597L1010 595L1008 593L1004 595L1000 590L998 593L992 592L992 584L988 582L984 586L980 588L978 588L978 586L975 587L975 589L971 591L973 595L970 599L966 601L967 607L966 606L964 608L965 609L961 614L958 623L961 626L965 626L964 627L966 629L969 628L968 629L970 631L971 638L975 642L984 634L984 630L989 630L992 627L990 626L994 625zM987 630L986 631L988 630zM999 622L1000 621L999 622zM1001 616L1001 616zM1005 609L1005 609zM985 632L985 631zM1004 603L1005 603zM985 630L983 631L985 631zM1005 610L1004 609zM1001 610L1002 609L1001 610zM1006 605L1006 605zM1001 616L1002 616zM1003 604L1003 603zM1007 604L1007 604zM1009 600L1009 599zM1007 601L1007 601zM1002 603L1001 603z" id="福建省"/>
<path name="江西省" class="leaflet-interactive" stroke="#3388ff" stroke-opacity="0" stroke-width="3" stroke-linecap="round" stroke-linejoin="round" fill="#eee" fill-opacity="0.5" fill-rule="evenodd" d="M985 568L983 566L979 566L974 561L969 566L967 564L970 561L966 559L966 561L963 563L962 562L959 564L954 562L952 565L951 564L948 567L947 566L947 568L938 570L936 572L939 575L938 578L940 582L934 587L932 592L934 595L936 594L934 598L935 597L936 599L936 604L938 604L937 609L940 610L937 611L936 619L938 619L938 621L942 619L946 621L940 628L942 630L951 627L958 630L957 626L959 626L958 622L960 620L960 616L962 614L961 613L964 612L964 609L967 606L967 600L973 596L973 593L971 591L974 590L975 587L978 586L978 588L980 588L982 586L987 585L987 575L983 572L983 570L985 569z" id="江西省"/>
<path class="leaflet-interactive" stroke="#3388ff" stroke-opacity="0" stroke-width="3" stroke-linecap="round" stroke-linejoin="round" fill="#eee" fill-opacity="0.5" fill-rule="evenodd" d="M964 497L964 494L970 493L974 500L976 498L976 500L978 500L981 497L983 497L985 499L984 500L987 501L987 498L989 496L990 497L993 492L998 491L1002 485L1001 484L1003 484L1009 478L1007 478L1008 475L1009 478L1013 477L1013 473L1015 473L1017 471L1016 470L1022 467L1023 468L1027 465L1030 465L1029 466L1032 467L1035 464L1033 464L1036 459L1031 458L1029 456L1027 458L1024 458L1019 456L1019 454L1015 452L1008 454L1008 456L1005 459L1003 459L1004 460L1002 462L998 462L994 460L993 457L994 455L997 454L997 452L996 453L993 448L988 449L981 446L976 452L968 453L965 457L964 456L962 458L963 459L961 459L958 462L958 465L952 470L954 475L952 481L953 482L954 480L961 477L960 479L954 482L946 492L949 492L954 496L954 498L964 498zM1014 451L1014 451zM1013 450L1014 450zM1017 473L1016 473zM1014 448L1014 447zM1016 445L1016 445zM1007 482L1007 481zM1012 451L1012 450zM1014 446L1015 445zM1022 456L1022 456zM1022 456L1022 456zM1022 456L1022 456zM954 480L954 480z" id="山东省"/><path class="leaflet-interactive" stroke="#3388ff" stroke-opacity="0" stroke-width="3" stroke-linecap="round" stroke-linejoin="round" fill="#eee" fill-opacity="0.5" fill-rule="evenodd" d="M922 529L928 528L931 530L933 528L935 531L935 535L937 535L937 537L939 535L947 541L951 539L952 542L953 539L959 535L959 526L956 528L951 526L951 522L948 521L947 518L949 519L953 516L952 513L955 512L955 507L957 505L960 507L961 510L963 510L966 507L967 508L967 506L966 503L962 500L962 498L954 498L950 492L947 492L947 490L950 486L951 487L961 478L960 477L953 481L952 479L954 478L954 476L953 477L950 475L947 478L947 476L944 477L942 475L934 473L932 481L933 484L932 483L930 486L928 486L927 488L926 487L923 490L915 489L915 491L910 493L909 495L905 495L902 496L901 498L900 497L896 499L896 502L899 505L898 508L903 512L903 518L905 518L906 522L918 529L922 528zM934 530L934 530z" id="河南省"/><path class="leaflet-interactive" stroke="#3388ff" stroke-opacity="0" stroke-width="3" stroke-linecap="round" stroke-linejoin="round" fill="#eee" fill-opacity="0.5" fill-rule="evenodd" d="M903 518L903 516L900 519L898 516L897 518L890 516L885 518L889 519L889 521L891 521L894 525L888 525L886 528L887 537L894 544L892 549L891 548L884 553L877 552L873 554L875 556L874 562L875 564L875 562L877 563L877 565L879 565L879 569L880 568L882 571L885 568L885 566L890 563L894 563L896 565L899 563L897 559L900 558L911 561L918 566L923 565L923 563L925 563L925 567L927 567L932 562L934 566L934 572L940 570L941 568L946 568L948 567L947 566L948 567L955 562L959 564L961 562L961 558L957 551L960 547L958 545L955 545L950 539L945 540L943 536L940 537L939 535L937 537L937 535L935 535L934 533L934 528L931 530L928 528L919 529L909 525L904 517zM881 552L881 552zM903 517L903 518zM922 529L923 529zM925 563L925 563z" id="湖北省"/><path class="leaflet-interactive" stroke="#3388ff" stroke-opacity="0" stroke-width="3" stroke-linecap="round" stroke-linejoin="round" fill="#eee" fill-opacity="0.5" fill-rule="evenodd" d="M915 627L916 622L922 622L922 624L925 625L925 620L928 618L930 618L931 620L935 620L937 617L937 612L938 610L940 610L937 609L938 605L935 603L936 595L932 593L934 587L937 586L937 584L940 581L938 579L939 576L936 572L933 571L934 565L932 563L927 567L925 567L925 563L923 563L923 565L918 566L912 561L907 561L900 558L897 559L899 563L898 564L896 565L894 563L890 563L885 566L883 571L884 577L882 578L884 578L884 590L886 590L878 598L886 598L885 600L887 602L884 603L885 606L883 608L885 608L885 611L889 613L891 609L893 609L892 611L895 612L899 607L906 608L905 612L908 613L906 619L902 624L903 625L906 622L908 624L909 629L911 627L914 627zM886 602L886 602z" id="湖南省"/><path class="leaflet-interactive" stroke="#3388ff" stroke-opacity="0" stroke-width="3" stroke-linecap="round" stroke-linejoin="round" fill="#eee" fill-opacity="0.5" fill-rule="evenodd" d="M932 659L934 653L933 652L936 656L940 654L942 654L942 656L945 652L947 655L950 651L954 653L956 651L958 652L965 650L966 647L969 646L970 642L971 643L973 641L970 636L971 634L968 630L969 628L966 629L964 627L965 626L963 627L958 625L957 630L954 627L952 627L947 628L947 630L944 629L942 631L939 628L942 626L943 623L945 623L943 619L937 621L938 619L931 620L927 618L926 620L924 620L926 622L926 625L924 625L921 622L917 622L913 629L915 631L915 633L913 634L914 637L910 639L910 641L908 641L908 649L900 655L901 658L897 660L896 659L896 663L893 662L890 666L889 665L890 668L888 676L892 683L896 683L898 681L897 677L896 678L894 674L896 671L903 668L915 666L915 664L918 665L922 664L923 662L926 663L927 660L928 663L932 659zM971 644L973 644L972 643zM924 664L923 667L924 665zM920 666L922 666L920 666zM940 661L940 661zM896 671L898 673L899 671L896 671zM919 665L920 665zM897 673L896 672L894 674L897 675L898 673zM934 662L934 661zM934 662L934 662zM927 663L927 663zM935 656L935 656zM939 661L939 661zM939 662L938 661zM969 676L968 677L970 677L970 679L969 676zM926 663L926 663zM896 677L896 677zM899 674L899 675zM898 682L898 681zM959 672L960 673L959 672zM959 674L959 674zM958 652L958 652zM958 652L958 652z" id="广东省"/><path class="leaflet-interactive" stroke="#3388ff" stroke-opacity="0" stroke-width="3" stroke-linecap="round" stroke-linejoin="round" fill="#eee" fill-opacity="0.5" fill-rule="evenodd" d="M886 611L883 615L879 615L881 615L880 618L878 616L876 620L873 617L869 622L866 623L865 620L864 621L860 617L858 617L858 620L856 622L849 624L846 629L838 624L832 629L829 627L829 630L831 632L836 631L838 636L847 635L848 642L844 642L842 644L843 645L841 645L841 647L845 650L848 649L850 651L856 651L852 656L854 658L854 662L855 661L862 666L863 665L873 667L876 665L881 666L882 669L889 668L891 663L895 663L895 659L899 659L899 655L900 656L900 654L904 653L908 649L907 644L908 641L910 641L910 639L914 637L913 634L915 632L915 627L911 627L909 629L907 622L903 625L902 624L907 618L906 615L908 614L905 612L906 609L903 607L899 607L895 612L892 611L892 609L889 611L890 613L886 611zM836 625L836 625zM881 673L881 673z" id="广西壮族自治区"/><path class="leaflet-interactive" stroke="#3388ff" stroke-opacity="0" stroke-width="3" stroke-linecap="round" stroke-linejoin="round" fill="#eee" fill-opacity="0.5" fill-rule="evenodd" d="M893 685L888 685L882 688L876 694L876 704L887 708L893 705L895 702L897 702L899 694L903 690L903 685L893 685zM917 874L917 873zM929 825L930 824L929 825zM914 874L915 874zM908 721L909 720L908 721zM979 743L981 744L979 743zM917 873L917 873zM911 731L912 731zM910 731L909 732L911 730zM936 831L939 832L943 828L942 827L936 831zM937 817L937 817zM937 817L937 817zM914 730L914 729zM911 728L912 728zM917 817L916 817zM935 834L935 834zM939 818L940 818zM917 722L917 722zM945 800L945 799zM958 807L958 806zM944 804L945 804zM934 831L935 831zM885 834L891 832L886 833zM963 817L963 816zM920 734L921 733L919 733zM920 817L921 817zM942 794L944 794L943 793zM919 730L920 730zM965 799L966 799zM918 723L918 722zM909 728L909 728zM954 805L954 804zM945 824L946 825L945 824zM943 825L944 825zM950 822L951 822zM936 827L936 826zM953 811L954 810zM965 813L966 813zM933 815L933 815zM945 792L946 791L945 792zM944 787L944 786zM947 794L948 793zM909 728L910 728zM936 817L936 817zM891 828L892 827L891 828zM968 786L969 787L968 786zM911 727L911 727zM920 728L921 727L920 728zM912 733L912 733zM935 803L936 804L935 802zM946 825L946 825zM966 807L967 807zM952 801L952 801zM969 798L970 798zM945 732L945 731zM960 811L960 812zM933 813L934 813zM945 831L945 831zM943 795L943 794zM980 795L980 794zM940 801L940 800zM945 787L945 786zM967 798L968 798zM897 825L898 826L897 825zM908 821L909 820zM951 821L952 821zM928 826L929 825zM938 793L938 793zM974 800L974 800zM939 733L940 733zM898 827L899 826zM954 821L954 821zM909 832L909 831zM910 819L911 819zM897 829L897 829zM918 816L919 816zM965 806L965 806zM913 826L915 826L914 825zM942 738L943 738zM948 791L949 791zM938 733L939 733zM960 803L961 802zM974 796L976 796L975 795zM947 835L947 836zM924 816L924 816zM911 831L911 830zM917 817L917 817zM920 852L921 852zM944 817L945 816L944 817zM947 827L947 827zM925 822L925 822zM933 839L933 839zM968 729L968 729zM975 803L975 802zM926 692L925 692zM942 733L942 733zM935 696L935 695zM922 860L922 860zM910 828L910 827zM917 817L918 816zM924 828L925 828zM921 855L921 855zM920 854L920 853zM953 758L953 757zM932 801L933 801zM935 740L936 740zM925 861L925 861zM921 860L921 860zM918 854L919 854zM917 725L917 724zM917 737L917 737zM921 857L921 856zM920 853L920 852zM928 846L928 846zM962 808L962 808zM948 832L949 832zM909 829L910 828zM936 735L937 735zM948 733L947 734zM968 815L968 815zM922 729L922 728zM905 687L905 687zM957 798L958 798zM974 795L974 795zM922 730L922 729zM957 797L958 798zM920 809L921 809zM944 738L944 738zM975 791L975 792zM979 792L979 792zM939 811L939 811zM945 807L945 807zM921 850L921 850z" id="海南省"/><path class="leaflet-interactive" stroke="#3388ff" stroke-opacity="0" stroke-width="3" stroke-linecap="round" stroke-linejoin="round" fill="#eee" fill-opacity="0.5" fill-rule="evenodd" d="M850 579L852 579L851 576L853 578L852 580L854 580L856 578L855 576L859 574L862 575L862 571L866 570L867 573L871 572L874 578L876 578L875 581L876 582L877 579L877 583L880 584L884 578L882 578L884 576L884 573L881 570L882 569L879 568L878 564L877 565L877 563L874 562L875 557L873 554L881 551L882 553L884 553L890 548L892 548L894 544L893 541L888 539L888 537L883 537L881 534L873 531L874 532L872 534L875 537L869 544L869 548L862 550L863 551L859 559L854 560L852 556L849 557L844 555L841 558L843 562L841 562L841 564L838 565L840 568L839 569L843 569L843 573L849 575L850 579zM881 552L881 552zM841 558L841 558zM881 552L881 552zM858 559L858 559z" id="重庆市"/><path class="leaflet-interactive" stroke="#3388ff" stroke-opacity="0" stroke-width="3" stroke-linecap="round" stroke-linejoin="round" fill="#eee" fill-opacity="0.5" fill-rule="evenodd" d="M791 596L791 598L794 601L793 602L795 602L794 605L796 609L797 608L802 611L807 607L809 609L813 605L810 598L811 595L818 588L817 585L822 582L822 577L827 578L826 581L829 583L827 585L830 588L837 585L838 590L849 589L850 588L848 584L846 585L842 581L842 579L846 576L850 580L850 578L848 574L843 573L843 569L839 569L840 568L838 566L843 561L843 559L841 558L844 554L848 557L853 556L854 560L859 559L863 552L862 550L866 548L867 549L869 547L869 543L875 537L872 534L874 532L873 531L875 531L867 531L865 528L860 528L858 526L859 525L855 523L851 525L844 522L842 524L839 521L840 523L838 525L829 524L826 521L828 521L828 515L826 515L824 511L817 509L816 510L811 502L802 507L806 512L806 514L804 514L803 517L802 516L800 518L798 516L800 514L798 512L798 516L796 518L794 518L793 516L790 517L792 524L786 524L784 526L782 523L779 525L779 521L777 521L776 519L774 523L771 521L769 522L769 520L764 517L760 506L755 505L754 503L751 504L752 506L748 508L748 512L752 514L749 518L750 519L748 523L758 529L762 539L765 541L764 543L762 543L766 550L766 564L769 582L771 584L771 580L774 575L779 580L778 581L780 582L778 584L782 590L782 588L785 587L789 595L791 596zM849 557L849 557zM857 559L857 559zM841 557L841 557z" id="四川省"/><path class="leaflet-interactive" stroke="#3388ff" stroke-opacity="0" stroke-width="3" stroke-linecap="round" stroke-linejoin="round" fill="#eee" fill-opacity="0.5" fill-rule="evenodd" d="M883 580L880 584L877 583L878 581L875 580L876 579L875 577L873 577L871 572L868 573L866 572L866 570L862 570L862 574L860 576L859 574L855 576L855 580L852 580L853 577L851 575L852 578L850 580L846 576L842 579L842 581L846 585L849 585L849 589L840 589L838 590L837 594L836 593L834 595L830 595L829 593L825 595L823 594L819 598L821 600L820 604L823 605L825 603L828 603L831 606L829 608L830 609L827 616L829 618L830 617L829 619L833 622L832 621L829 627L831 629L835 627L837 624L841 627L846 628L849 624L858 621L857 620L860 617L864 621L865 620L866 623L869 622L871 620L870 619L872 619L872 617L876 620L878 616L880 618L881 615L879 615L883 615L886 611L885 608L883 608L885 606L884 603L886 601L886 597L881 597L879 599L878 598L882 593L886 591L884 589L885 582L883 582L883 580zM886 601L885 601zM886 602L886 602z" id="贵州省"/><path class="leaflet-interactive" stroke="#3388ff" stroke-opacity="0" stroke-width="3" stroke-linecap="round" stroke-linejoin="round" fill="#eee" fill-opacity="0.5" fill-rule="evenodd" d="M838 590L837 585L830 588L827 586L828 583L826 579L828 578L822 578L822 581L817 584L817 589L813 594L811 594L810 598L813 605L809 609L807 608L808 607L799 611L797 608L796 609L794 605L795 602L793 602L794 601L789 595L787 589L785 587L782 588L782 590L780 588L778 585L778 583L780 583L778 581L779 580L774 575L772 577L773 578L771 580L771 584L769 582L768 570L766 570L767 573L765 574L765 576L764 573L762 573L762 579L764 582L762 584L760 584L758 581L757 582L758 590L760 592L760 590L763 591L763 614L761 613L760 616L758 616L757 619L753 621L753 626L750 627L750 631L752 633L750 637L751 638L757 635L765 635L763 637L766 645L765 646L767 648L770 647L773 650L771 650L772 651L768 659L775 660L778 662L777 663L778 665L780 665L780 668L786 667L790 664L791 669L797 672L799 670L797 669L798 663L795 658L797 657L797 655L803 656L806 652L812 656L816 652L818 654L821 653L823 655L825 651L828 653L833 650L833 647L838 645L840 645L841 647L841 645L843 645L842 644L844 642L848 642L847 635L840 636L837 634L836 631L831 632L829 630L829 626L833 621L830 619L830 617L829 618L827 616L827 614L828 615L831 606L828 602L827 604L820 604L821 600L819 598L823 593L824 595L829 593L829 595L833 595L836 593L837 594L838 591z" id="云南省"/><path class="leaflet-interactive" stroke="#3388ff" stroke-opacity="0" stroke-width="3" stroke-linecap="round" stroke-linejoin="round" fill="#eee" fill-opacity="0.5" fill-rule="evenodd" d="M661 477L655 474L654 475L652 473L651 474L648 472L642 472L622 476L618 482L617 481L611 483L610 481L602 484L600 487L586 487L584 483L581 484L578 482L577 485L575 485L574 488L571 489L563 487L553 488L554 490L550 493L551 494L549 495L548 499L542 501L539 500L539 502L535 506L535 511L542 521L542 526L539 529L536 526L536 524L532 526L532 531L536 535L536 542L541 547L547 547L552 553L553 552L562 556L563 560L565 560L564 559L567 554L573 556L574 555L574 557L577 560L582 564L587 565L589 569L592 571L596 569L599 575L601 575L605 579L608 577L609 582L615 582L619 587L620 584L623 587L627 585L632 588L643 588L643 586L644 587L649 584L651 586L650 593L653 596L655 594L654 591L661 583L665 583L671 586L672 585L676 588L679 585L681 586L683 589L682 592L685 592L688 595L688 601L694 599L705 600L713 591L724 587L725 584L730 582L738 584L740 587L743 587L745 589L748 586L748 582L750 582L749 581L751 579L756 584L758 582L757 581L759 582L760 585L763 582L762 573L764 573L765 576L766 575L765 574L767 570L767 559L765 551L766 550L762 544L762 542L765 542L761 538L757 529L753 526L747 526L747 531L742 534L740 533L742 537L738 537L737 534L735 534L735 539L732 536L730 538L728 536L727 537L725 533L726 531L724 531L724 529L722 530L723 529L717 525L713 527L712 526L711 528L707 526L704 527L701 524L690 524L688 521L684 521L681 518L674 519L668 516L667 514L665 514L664 510L660 506L662 503L662 495L659 494L658 487L661 486L662 481L657 480L657 478L660 477z" id="西藏自治区"/><path class="leaflet-interactive" stroke="#3388ff" stroke-opacity="0" stroke-width="3" stroke-linecap="round" stroke-linejoin="round" fill="#eee" fill-opacity="0.5" fill-rule="evenodd" d="M896 498L894 497L898 485L896 465L901 456L897 448L898 445L900 445L902 442L903 435L905 434L906 431L904 427L899 431L894 429L893 432L890 431L891 433L880 445L879 447L881 449L879 451L878 449L878 455L870 455L866 452L862 454L860 459L861 466L866 467L869 470L876 473L876 487L874 489L866 488L865 489L867 493L863 494L860 494L857 491L852 491L853 496L850 498L854 502L852 502L853 504L851 506L853 511L852 513L844 513L843 516L846 517L844 521L840 521L841 524L844 522L851 525L855 523L858 524L860 528L862 526L868 531L874 530L879 534L887 537L887 525L892 526L893 523L889 521L888 518L886 518L888 516L897 518L898 516L898 518L900 519L903 516L903 512L899 508L899 504L896 502L896 498zM903 513L903 514zM847 523L847 523z" id="陕西省"/><path class="leaflet-interactive" stroke="#3388ff" stroke-opacity="0" stroke-width="3" stroke-linecap="round" stroke-linejoin="round" fill="#eee" fill-opacity="0.5" fill-rule="evenodd" d="M852 482L852 486L850 489L848 486L845 487L847 486L844 486L844 484L840 482L838 479L841 476L837 469L838 466L834 464L832 461L830 461L831 458L825 458L820 453L817 452L817 445L822 441L823 437L826 434L824 429L817 430L812 434L806 432L801 433L799 434L801 437L798 440L794 439L791 436L792 435L787 435L787 429L783 430L781 426L774 422L771 422L775 421L777 418L780 417L781 411L778 407L768 408L768 410L766 409L764 410L764 412L763 409L759 412L759 407L751 399L753 396L746 378L737 379L734 381L732 383L734 390L724 397L722 394L718 398L716 398L708 406L707 411L697 412L695 426L691 432L692 435L695 433L699 433L700 437L708 437L707 438L709 440L713 439L716 444L723 444L726 446L729 444L735 448L737 446L740 447L740 443L744 441L743 435L745 432L756 439L758 435L761 436L764 434L768 436L767 437L776 445L780 447L778 443L779 442L783 446L787 448L788 447L788 449L791 452L796 452L802 456L808 463L806 463L806 465L809 468L807 468L812 475L812 479L810 481L809 480L808 482L810 485L809 486L807 484L805 487L804 486L805 489L800 495L800 498L803 501L799 505L789 501L786 504L791 509L791 511L795 510L796 513L799 512L800 514L798 516L800 518L802 516L803 517L804 514L806 514L802 507L808 505L807 504L810 502L814 505L814 509L825 512L828 516L827 521L830 524L838 525L840 521L844 521L846 517L843 516L844 513L853 512L851 507L854 501L850 499L852 496L852 492L856 491L862 494L867 492L865 489L866 488L874 489L876 487L874 480L877 478L877 476L875 472L864 467L859 462L854 462L854 467L850 471L852 471L852 475L857 476L857 481L855 483L852 482zM847 485L847 485zM810 473L810 474zM847 486L847 487zM852 482L852 482z" id="甘肃省"/><path class="leaflet-interactive" stroke="#3388ff" stroke-opacity="0" stroke-width="3" stroke-linecap="round" stroke-linejoin="round" fill="#eee" fill-opacity="0.5" fill-rule="evenodd" d="M810 473L810 471L807 468L809 468L806 464L807 461L800 454L799 455L796 452L793 453L788 449L788 447L787 448L786 446L782 446L779 442L778 443L780 447L776 445L767 437L768 436L764 434L762 436L759 435L756 439L745 432L743 434L743 442L742 441L740 443L740 446L736 446L736 448L732 447L729 444L727 446L723 444L716 445L714 439L707 439L708 438L706 437L701 437L700 433L695 433L689 436L672 440L669 443L665 443L667 447L669 445L670 454L677 458L679 464L675 466L674 465L672 468L673 471L676 471L677 477L674 478L665 475L663 477L658 478L657 480L662 481L661 486L658 487L659 493L662 494L662 504L660 506L664 510L664 512L672 518L681 518L684 521L688 521L690 524L695 523L699 525L700 524L704 527L707 526L711 528L717 524L720 528L726 531L725 534L727 537L731 536L735 539L734 536L736 534L740 538L741 533L745 533L747 529L748 530L747 526L752 526L748 524L748 520L750 520L749 518L752 514L748 512L748 508L750 508L752 506L751 504L754 503L756 505L760 505L764 517L768 519L769 522L770 521L775 523L776 520L779 521L779 525L781 523L783 523L785 526L792 524L790 517L793 516L793 518L796 518L798 514L795 510L792 511L791 508L788 507L787 502L788 501L799 505L803 501L800 498L800 494L805 490L804 486L805 487L806 484L809 486L810 485L808 482L811 481L811 477L813 475L810 474z" id="青海省"/><path class="leaflet-interactive" stroke="#3388ff" stroke-opacity="0" stroke-width="3" stroke-linecap="round" stroke-linejoin="round" fill="#eee" fill-opacity="0.5" fill-rule="evenodd" d="M860 463L862 454L865 453L860 448L852 446L857 436L854 430L849 432L845 438L845 446L843 448L843 453L827 458L831 458L830 461L837 464L839 468L837 468L837 470L841 476L838 479L850 489L852 487L852 482L854 483L857 481L857 477L853 475L850 470L851 471L854 467L852 465L853 462L860 463zM847 486L845 486L847 486zM847 486L847 486z" id="宁夏回族自治区"/><path class="leaflet-interactive" stroke="#3388ff" stroke-opacity="0" stroke-width="3" stroke-linecap="round" stroke-linejoin="round" fill="#eee" fill-opacity="0.5" fill-rule="evenodd" d="M737 379L731 371L727 359L725 359L726 356L720 355L704 344L681 342L675 340L673 338L672 332L676 327L674 322L676 320L676 316L670 306L669 301L665 298L665 296L661 297L658 293L653 294L652 292L650 292L648 288L641 283L642 282L639 279L639 273L635 275L630 274L627 276L627 282L623 286L622 285L615 288L613 292L615 307L612 310L610 310L607 313L605 311L595 311L586 307L585 308L576 332L576 335L580 338L579 341L576 339L573 340L569 338L565 340L564 339L562 341L556 341L549 345L555 349L555 359L559 367L559 373L555 375L557 377L555 377L552 381L554 387L552 387L552 389L546 393L535 397L535 399L534 398L530 400L525 404L526 405L515 405L513 407L512 412L509 415L508 414L502 416L500 412L501 411L496 414L492 413L492 416L482 420L480 423L481 427L476 430L480 435L479 440L481 442L486 440L492 444L492 455L495 458L495 460L487 462L489 464L492 463L492 465L498 465L499 468L503 468L505 471L504 476L507 480L506 481L511 480L511 482L515 484L521 486L528 486L530 496L537 501L549 499L551 494L550 493L555 486L559 488L566 487L571 489L574 488L573 486L575 486L578 482L581 484L584 483L586 487L600 487L603 484L610 481L613 483L617 482L620 480L622 476L627 474L629 475L635 472L636 474L648 472L659 477L663 477L665 475L674 478L677 477L676 472L672 469L672 467L674 465L675 466L679 464L679 462L677 458L671 454L670 445L667 447L665 444L669 443L672 440L683 438L690 435L695 426L697 412L707 411L708 406L716 398L718 398L722 394L724 396L732 392L734 390L732 384L734 381z" id="新疆维吾尔自治区"/><path class="leaflet-interactive" stroke="#3388ff" stroke-opacity="0" stroke-width="3" stroke-linecap="round" stroke-linejoin="round" fill="#eee" fill-opacity="0.5" fill-rule="evenodd" d="M1010 656L1013 658L1013 662L1015 663L1016 655L1022 647L1024 636L1027 631L1026 627L1028 624L1023 620L1016 625L1008 639L1006 640L1006 648L1009 655zM1057 613L1057 612zM1045 615L1045 615zM1001 642L1001 643zM1047 613L1047 612zM1000 641L999 642L1000 641zM1000 644L1000 645zM1000 641L1001 641zM1029 616L1029 616zM1022 653L1023 653zM1023 660L1022 661L1024 661L1023 660zM1029 618L1029 618zM999 646L999 646zM1009 657L1010 657z" id="台湾省"/><path class="leaflet-interactive" stroke="#3388ff" stroke-opacity="0" stroke-width="3" stroke-linecap="round" stroke-linejoin="round" fill="#eee" fill-opacity="0.5" fill-rule="evenodd" d="M937 655L935 659L938 657L940 659L940 657L942 657L939 656L941 655L938 655zM939 659L938 658L939 659zM941 657L941 657zM941 657L941 657zM941 657L941 657zM941 658L941 658zM941 657L941 657zM941 657L941 657zM941 658L941 658z" id="香港特别行政区"/><path class="leaflet-interactive" stroke="#3388ff" stroke-opacity="0" stroke-width="3" stroke-linecap="round" stroke-linejoin="round" fill="#eee" fill-opacity="0.5" fill-rule="evenodd" d="M932 660L932 660zM932 659L932 659z" id="澳门特别行政区"/><path class="leaflet-interactive" stroke="#3388ff" stroke-opacity="0" stroke-width="3" stroke-linecap="round" stroke-linejoin="round" fill="#eee" fill-opacity="0.5" fill-rule="evenodd" d="M1034 643L1037 629L1034 643zM1019 676L1027 665L1019 676zM999 710L1006 697L999 710zM995 745L995 733L995 745zM990 790L989 793L994 781L992 785zM955 836L963 827L955 836zM918 878L912 879L924 876L920 877zM872 849L872 837L872 849zM893 788L892 789L895 785L895 779L894 786zM890 743L884 731L889 740z" id="100000_JD"/></g></svg>